<?xml version="1.0" encoding="UTF-8" standalone="no"?>
<svg
   width="47.714424"
   height="47.714424"
   viewBox="0 0 47.714425 47.714425"
   version="1.1"
   alt="logo"
   id="svg10"
   sodipodi:docname="logo.svg"
   inkscape:version="1.1.1 (1:1.1+202109281949+c3084ef5ed)"
   xmlns:inkscape="http://www.inkscape.org/namespaces/inkscape"
   xmlns:sodipodi="http://sodipodi.sourceforge.net/DTD/sodipodi-0.dtd"
   xmlns="http://www.w3.org/2000/svg"
   xmlns:svg="http://www.w3.org/2000/svg">
  <defs
     id="defs14" />
  <sodipodi:namedview
     id="namedview12"
     pagecolor="#ffffff"
     bordercolor="#111111"
     borderopacity="1"
     inkscape:pageshadow="0"
     inkscape:pageopacity="0"
     inkscape:pagecheckerboard="1"
     showgrid="false"
     inkscape:zoom="10.694304"
     inkscape:cx="0.18701545"
     inkscape:cy="34.597858"
     inkscape:window-width="2560"
     inkscape:window-height="1406"
     inkscape:window-x="0"
     inkscape:window-y="34"
     inkscape:window-maximized="1"
     inkscape:current-layer="svg10"
     fit-margin-top="0"
     fit-margin-left="0"
     fit-margin-right="0"
     fit-margin-bottom="0" />
  <circle
     style="fill:#2563eb;fill-opacity:1;stroke:#ffffff;stroke-width:1.03797;stroke-linecap:square;stroke-linejoin:round;stroke-miterlimit:4;stroke-dasharray:none"
     id="path853"
     cx="23.857212"
     cy="23.857212"
     r="23.338226" />
  <!-- dodo by iconsproducer - https://thenounproject.com/iconsproducer/collection/dodo-icon/?i=1892675 - CC BY 3.0 US https://creativecommons.org/licenses/by/3.0/us/legalcode) -->
  <g
     id="g1199"
     transform="translate(3.13964,8.40506)">
    <ellipse
       transform="rotate(-23.247492)"
       cx="4.1539187"
       cy="15.427773"
       rx="1.9999815"
       ry="0.89999169"
       id="ellipse2"
       style="fill:#ffffff;fill-opacity:1" />
    <path
       d="m 30.400275,9.8420623 c -0.3,-0.3 -0.7,-0.6 -1,-0.9 -0.7,-0.5 -1.5,-0.9 -2.2,-1.4 -0.7,-0.5 -1.4,-0.9 -2.1,-1.4 -1.4,-1 -2.7,-2.1 -3.9,-3.2 l -0.3,-0.3 -0.2,0.4 c -0.3,0.7 -0.7,1.5 -1.2,2.1 -0.5,0.7 -1,1.3 -1.6,1.9 -0.6,0.6 -1.2,1.1 -1.9,1.5 -0.7,0.5 -1.4,0.9 -2.2,1.2 0.8,-0.2 1.6,-0.6 2.3,-1 0.4,-0.2 0.7,-0.4 1.1,-0.7 0.4,-0.2 0.7,-0.5 1,-0.8 0.6,-0.6 1.2,-1.2 1.8,-1.9 0.3,-0.4 0.7,-1 1,-1.6 1.1,1.1 2.4,2.1 3.6,3 0.7,0.5 1.4,1 2.2,1.4 0.7,0.5 1.5,0.9 2.2,1.3 0.7,0.5 1.3,0.9999997 1.6,1.6999997 0.3,0.7 0.4,1.6 0.3,2.4 -0.1,0.4 -0.2,0.8 -0.3,1.2 -0.1,0.4 -0.3,0.8 -0.6,1.1 -0.5,0.7 -1.1,1.3 -1.9,1.7 0.8,-0.3 1.5,-0.8 2.1,-1.5 0.3,-0.3 0.5,-0.7 0.7,-1.1 0.2,-0.4 0.3,-0.8 0.4,-1.3 0.2,-0.9 0.1,-1.8 -0.2,-2.7 -0.2,-0.3 -0.4,-0.7 -0.7,-1.0999997 z"
       id="path4"
       style="fill:#ffffff;fill-opacity:1" />
    <circle
       cx="20.800276"
       cy="7.342062"
       r="1.4"
       id="circle6"
       style="fill:#ffffff;fill-opacity:1" />
    <path
       d="M 25.598712,4.946707e-6 C 23.625275,-0.00155739 21.625274,0.36693194 19.700274,1.1419319 l -0.199869,0.1002607 v 0.30013 c -0.1,0.7 -0.600391,2.4994793 -1.900391,3.7994793 -1.1,1.1 -2.199609,1.3002603 -4.099609,1.6002603 -1.3,0.2 -2.900391,0.5002603 -4.9003908,1.1002603 -2.9,0.9 -4.69987,1.3996094 -6.19987,3.0996095 -0.9999999,1.1 -3.19960906,4.00026 -2.09960927,7.10026 0.79999997,2.3 2.89947927,3.29987 3.79947927,3.69987 l 0.80013,0.30013 -0.1998696,-0.80013 c -0.1,-0.6 -0.09974,-1.3 0.1002603,-2 0.1,0.6 0.39987,1.10026 0.69987,1.60026 0.7,1 2.2996093,2.29948 5.5996091,2.29948 2.8,0 4.7,-1.19948 6.5,-2.29948 1.7,-1.1 3.40013,-2.20026 5.80013,-2.10026 0.9,0 1.700261,0.2 2.600261,0.5 -4.45891,2.622888 -8.077437,6.622129 -10.253256,11.46224 h 1.122396 c 2.192297,-4.610297 5.785222,-8.540183 10.530599,-11.0625 l 0.900391,-0.5 -1,-0.39974 c -1.3,-0.6 -2.600391,-0.89974 -3.900391,-0.89974 -2.7,-0.1 -4.599739,1.09948 -6.399739,2.29948 -1.8,1.1 -3.4,2.20052 -6,2.20052 -2.9000001,0 -4.2001305,-1.10039 -4.8001305,-1.90039 -0.2,-0.4 -0.4,-0.79987 -0.5,-1.19987 1.6,0.2 3.2001303,0.10013 4.8001305,-0.19987 4,-0.8 6.699739,-2.90026 8.399739,-4.60026 l 1.80013,-1.89974 -2.399739,1.09961 c -1.2,0.5 -2.400261,0.90026 -3.600261,1.10026 -1.1,0.2 -1.80026,0.10026 -2.60026,0.10026 -0.8,-0.1 -1.49987,-0.10039 -2.6998698,0.09961 -1.3,0.2 -3.5997393,0.70026 -4.8997393,2.60026 -0.7,1 -0.9003907,2.19961 -0.9003907,3.09961 -0.9,-0.5 -2,-1.29948 -2.4999999,-2.79948 -1.00000004,-2.7 1.0003906,-5.20052 1.9003906,-6.20052 1.3,-1.4 2.80013,-1.9997398 5.8001299,-2.8997398 2.0000002,-0.6 3.4994792,-0.9002603 4.7994792,-1.1002603 1.9,-0.3 3.30026,-0.5994794 4.60026,-1.7994793 1.3,-1.3 1.900261,-3.1 2.100261,-4 7.2,-2.79999978 15.399869,0.5 18.699869,7.4999999 3.2,6.6999995 0.89961,14.7997395 -5.40039,18.8997395 -0.8,0.5 -1.4,1.39974 -1.5,2.39974 -0.0023,0.02084 -0.0035,0.04166 -0.0052,0.0625 h 1.097007 c 0.0027,-0.02081 0.005,-0.04168 0.0085,-0.0625 0.1,-0.7 0.4,-1.29987 1,-1.69987 6.7,-4.3 9.09987,-12.89961 5.69987,-20.0996095 -2.7,-5.6999999 -8.38112,-9.03762989 -14.301432,-9.042317553293 z M 16.400144,15.442062 c -1.5,1.1 -3.5,2.19987 -6,2.69987 -1.6999998,0.4 -3.3996091,0.40026 -5.0996091,0.10026 l 0.099609,-0.10026 c 1.1,-1.6 3.0001303,-1.89987 4.3001303,-2.19987 1.0999998,-0.2 1.7999998,-0.10026 2.4999998,-0.10026 0.8,0.1 1.500131,0.10039 2.800131,-0.09961 0.5,-0.1 0.999739,-0.20013 1.399739,-0.30013 z"
       id="path8"
       style="fill:#ffffff;fill-opacity:1" />
  </g>
</svg>
