<?xml version="1.0" encoding="UTF-8" standalone="no"?>
<svg
   width="8.130024"
   height="8.130024"
   viewBox="0 0 8.130024 8.130024"
   version="1.1"
   id="svg10"
   sodipodi:docname="favicon.svg"
   inkscape:version="1.1.1 (1:1.1+202109281949+c3084ef5ed)"
   xmlns:inkscape="http://www.inkscape.org/namespaces/inkscape"
   xmlns:sodipodi="http://sodipodi.sourceforge.net/DTD/sodipodi-0.dtd"
   xmlns="http://www.w3.org/2000/svg"
   xmlns:svg="http://www.w3.org/2000/svg">
  <defs
     id="defs14" />
  <sodipodi:namedview
     id="namedview12"
     pagecolor="#ffffff"
     bordercolor="#111111"
     borderopacity="1"
     inkscape:pageshadow="0"
     inkscape:pageopacity="0"
     inkscape:pagecheckerboard="1"
     showgrid="false"
     inkscape:zoom="45.254834"
     inkscape:cx="-8.5736697"
     inkscape:cy="5.7673397"
     inkscape:window-width="2560"
     inkscape:window-height="1406"
     inkscape:window-x="0"
     inkscape:window-y="34"
     inkscape:window-maximized="1"
     inkscape:current-layer="svg10"
     inkscape:snap-global="false"
     fit-margin-top="0"
     fit-margin-left="0"
     fit-margin-right="0"
     fit-margin-bottom="0" />
  <circle
     style="fill:#2563eb;fill-opacity:1;stroke:#ffffff;stroke-width:0.25;stroke-linecap:square;stroke-linejoin:round;stroke-miterlimit:4;stroke-dasharray:none;stroke-dashoffset:0;stroke-opacity:1"
     id="path950"
     cx="4.065012"
     cy="4.065012"
     r="3.9400117" />
  <path
     id="path950-3"
     style="fill:#ffffff;fill-opacity:1;stroke:none;stroke-width:0.491256;stroke-linecap:square;stroke-linejoin:round;stroke-dasharray:0.982507, 0.491256"
     d="M 4.1655808,0.88370106 3.9644088,1.284092 c -0.3,0.7 -0.699219,1.499609 -1.199219,2.099609 -0.5,0.7 -0.999609,1.300391 -1.599609,1.900391 C 0.96556276,5.484109 0.76383376,5.6688 0.56011176,5.846592 a 3.9400117,3.9400117 0 0 0 0.158203,0.289062 c 0.279741,-0.186123 0.51316204,-0.417458 0.74609404,-0.65039 0.6,-0.6 1.200781,-1.200391 1.800781,-1.900391 0.3,-0.4 0.7,-0.999609 1,-1.599609 1.1,1.1 2.399609,2.1 3.59961,3 0.0065,0.0046 0.01307,0.0091 0.01953,0.01367 A 3.9400117,3.9400117 0 0 0 8.0015168,4.118075 C 6.7399598,3.190291 5.5594278,2.18825 4.4644078,1.184481 Z" />
  <circle
     cx="4.065012"
     cy="5.5844793"
     r="1.4"
     id="circle6"
     style="fill:#ffffff;fill-opacity:1" />
</svg>
